<svg width="227" height="227" viewBox="0 0 227 227" fill="none" xmlns="http://www.w3.org/2000/svg">
<path d="M106.483 119.779C110.28 118.928 114.085 119.597 117.874 119.357C118.696 119.381 119.31 119.369 119.923 119.356C122.307 119.541 124.491 119.664 126.671 119.846C127.742 119.936 128.81 120.108 129.87 120.294C130.347 120.378 130.801 120.59 131.266 120.744C133.149 120.572 134.719 121.122 136.311 121.576C137.109 121.803 137.935 121.929 138.748 122.101C140.166 122.377 141.414 122.579 142.64 122.871C143.87 123.165 145.083 123.539 146.298 123.897C148.058 124.415 149.814 124.952 151.571 125.48C153.721 126.46 155.779 127.303 157.845 128.127C158.212 128.274 158.613 128.34 158.998 128.443C159.903 129.015 160.791 129.363 161.423 129.975C162.071 130.604 162.469 131.49 162.976 132.264C163.993 133.715 164.797 135.062 164.781 136.802C164.774 137.573 165.053 138.347 165.203 139.119C165.333 140.985 165.495 142.656 165.657 144.327C165.486 146.688 165.421 148.858 165.185 151.01C164.996 152.738 164.605 154.445 164.29 156.159C164.266 156.288 164.132 156.397 164.05 156.515C163.467 158.251 163.1 159.925 162.633 161.571C161.697 164.862 160.077 167.862 158.441 170.833C157.47 172.598 156.201 174.196 155.113 175.899C153.161 178.955 150.562 181.435 147.972 183.913C146.991 184.852 145.833 185.604 144.757 186.442C144.595 186.431 144.583 186.456 144.583 186.456C144.557 186.444 144.49 186.525 144.49 186.525C142.604 188.233 140.538 189.586 138.236 190.592C137.741 190.809 137.317 191.186 136.86 191.489C135.308 192.186 133.914 192.825 132.52 193.464C132.259 193.467 132.164 193.479 132.068 193.492C131.815 193.566 131.705 193.627 131.595 193.688C130.094 194.148 128.729 194.621 127.364 195.095C126.36 195.478 125.559 195.929 124.7 196.125C123.523 196.394 122.299 196.457 121.099 196.633C120.232 196.76 119.369 196.927 118.505 197.077C117.008 197.11 115.558 197.153 114.132 197.198H108.911C108.797 197.168 108.684 197.137 108.57 197.114C107.615 196.979 106.694 197.082 105.775 197.064C105.338 197.055 104.907 196.809 104.469 196.684C104.246 196.621 104.011 196.541 103.786 196.552C103.035 196.591 102.238 196.95 101.663 196.089C101.58 195.965 101.239 196.029 101.026 195.973C99.6288 195.606 98.2273 195.253 96.8407 194.848C96.2567 194.678 95.7056 194.394 95.1395 194.163C93.9893 193.794 92.9721 193.551 92.0223 193.149C90.4378 192.478 88.8853 191.728 87.3407 190.968C86.4895 190.549 85.6817 190.042 84.8544 189.575C84.4205 189.219 84.1041 188.97 83.788 188.721C83.5588 188.652 83.473 188.636 83.3876 188.62C81.6753 187.342 79.9697 186.261 78.4344 184.978C77.0311 183.805 75.812 182.411 74.5116 181.115C72.6346 179.046 70.8379 177.16 69.5302 174.871C69.1143 174.143 68.5418 173.504 68.0409 172.825C67.5471 171.977 67.1147 171.268 66.6825 170.559C66.0384 169.261 65.4554 168.099 64.8729 166.938C64.2928 165.618 63.7739 164.443 63.2548 163.269C62.8397 161.886 62.3661 160.678 61.9677 159.447C61.8347 159.035 61.8922 158.562 61.8622 158.118C61.5489 156.972 61.2552 156.019 60.9774 155.062C60.8306 154.556 60.711 154.042 60.579 153.532C59.888 149.009 59.9184 144.618 60.1434 140.258C60.2526 138.142 60.2172 135.829 61.4667 133.941C62.1539 132.903 63.0546 131.89 64.0897 131.224C65.7147 130.179 67.5011 129.359 69.2811 128.587C71.1734 127.767 73.1382 127.113 75.0712 126.386C76.3042 125.942 77.3768 125.57 78.4491 125.199C79.746 124.733 80.8545 124.287 81.9813 123.895C82.601 123.679 83.2518 123.553 83.8885 123.386C85.2125 123.059 86.3563 122.776 87.4999 122.494C88.095 122.26 88.4826 121.978 88.911 121.885C90.106 121.627 91.318 121.447 92.5233 121.236C92.8791 121.219 93.0502 121.206 93.2206 121.194C95.0668 120.927 96.7415 120.609 98.4237 120.338C98.9339 120.256 99.4648 120.302 99.9862 120.288C102.289 120.158 104.446 120.235 106.483 119.779ZM111.497 45.0609C112.873 44.9511 114.265 45.0194 115.648 45.0502C115.991 45.0578 116.329 45.2262 116.67 45.3207C119.205 45.4463 121.588 45.8714 123.875 46.8295C124.072 46.9121 124.322 46.8682 124.548 46.8832C126.621 47.8601 128.56 48.7341 130.5 49.6078C132.081 50.7697 133.583 51.7947 135.085 52.8197C136.055 53.687 136.955 54.4119 137.855 55.1371C138.576 56.0877 139.229 56.9144 139.883 57.7406C140.469 58.6777 141.073 59.4598 141.678 60.2416C142.425 61.6513 143.224 62.8713 143.911 64.1508C144.315 64.903 144.543 65.7498 144.849 66.5541C145.116 67.2674 145.474 67.7792 145.622 68.3451C146.007 69.8186 146.314 71.3134 146.626 72.8051C146.809 73.6813 146.943 74.5686 147.099 75.4506C147.076 78.3067 147.188 80.9678 147.063 83.6176C147.002 84.9182 146.504 86.1983 146.203 87.4877C145.965 88.4723 145.89 89.3318 145.575 90.0902C144.284 93.1958 142.948 96.2576 140.973 99.0473C139.492 101.138 137.953 103.156 136.01 104.774C133.306 107.025 130.354 108.952 127.076 110.31C125.562 110.937 124.047 111.567 122.51 112.135C121.725 112.425 120.89 112.579 120.078 112.795C118.182 112.928 116.463 113.072 114.749 113.265C113.811 113.371 112.885 113.628 111.946 113.678C111.534 113.7 111.103 113.378 110.681 113.212C109.355 113.021 108.115 112.977 106.876 112.933C105.24 112.681 103.788 112.306 102.4 111.681C101.729 111.493 101.228 111.341 100.727 111.191C99.5011 110.599 98.3945 110.12 97.288 109.641C95.9032 108.728 94.6084 107.945 93.3143 107.163C92.1042 106.273 91.0447 105.435 89.9852 104.597C88.7397 103.29 87.5676 102.121 86.3954 100.952C85.6148 99.5908 84.8361 98.3833 84.0575 97.1762C83.5698 96.1782 83.011 95.3708 82.5966 94.4955C81.9862 93.2062 81.478 91.8685 80.9266 90.5512C80.4883 88.6158 80.0315 86.852 79.5497 85.0951C78.7209 82.0735 79.1432 78.988 79.1464 75.935C79.1478 74.496 79.5856 73.0423 79.9354 71.6225C80.3497 69.9413 80.7531 68.2371 81.3973 66.6381C82.1462 64.7794 83.0941 62.9925 84.0634 61.2338C84.7384 60.009 85.5909 58.8812 86.3729 57.7162C86.5589 57.4391 86.7559 57.1616 86.9891 56.9252C88.4724 55.4217 89.8301 53.7494 91.495 52.4818C93.4019 51.0301 95.5362 49.8488 97.661 48.7182C100.382 47.27 103.293 46.2859 106.348 45.7738C108.179 45.4929 109.832 45.194 111.497 45.0609Z" fill="url(#paint0_radial_4_97)"/>
<path d="M42.2494 24.6368C44.2428 23.1083 46.1085 21.5316 48.1306 20.1908C51.2834 18.1001 54.4761 16.051 57.7753 14.2047C60.9634 12.4206 64.2295 10.7263 67.6027 9.33516C71.8588 7.5799 76.2239 6.06559 80.6084 4.65364C83.2628 3.79883 86.0319 3.28115 88.77 2.71075C91.2837 2.1871 93.833 1.83666 96.3519 1.3355C99.2604 0.7568 102.234 0.759658 105.139 0.361294C109.289 -0.207768 113.41 0.0670207 117.536 0.0617746C120.317 0.0582394 123.098 0.585925 125.879 0.87221C126.141 0.899197 126.409 0.878564 126.669 0.915025C128.621 1.18841 130.572 1.46297 132.522 1.75326C133.479 1.89583 134.428 2.09826 135.386 2.22984C141.835 3.11502 147.922 5.33227 154.049 7.37157C156.354 8.13871 158.562 9.21887 160.768 10.2542C163.381 11.4804 166.007 12.7015 168.512 14.1268C171.538 15.8481 174.498 17.7002 177.386 19.6458C180.205 21.5453 182.923 23.5987 185.632 25.6549C186.943 26.6501 188.185 27.7517 189.365 28.901C192.043 31.5089 194.749 34.0959 197.278 36.8442C199.351 39.0972 201.266 41.5096 203.104 43.9621C205.46 47.1069 207.691 50.3466 209.927 53.5797C210.65 54.6255 211.282 55.7472 211.844 56.8894C213.912 61.0972 216.007 65.2947 217.944 69.5632C219.04 71.9802 219.938 74.4991 220.762 77.0251C221.584 79.5425 222.24 82.1165 222.899 84.6837C223.52 87.1007 224.088 89.533 224.602 91.9747C224.871 93.2496 224.962 94.5612 225.157 95.8526C225.418 97.5817 225.701 99.3074 225.975 101.035C225.999 101.183 226.042 101.331 226.046 101.48C226.203 107.459 226.452 113.437 226.462 119.415C226.466 121.743 225.915 124.07 225.647 126.401C225.456 128.071 225.338 129.749 225.144 131.419C225.028 132.417 224.892 133.422 224.654 134.397C223.666 138.451 222.645 142.498 221.62 146.543C220.288 151.798 218.302 156.805 215.88 161.647C214.421 164.566 213.098 167.563 211.472 170.385C209.81 173.269 207.953 176.055 205.996 178.75C203.844 181.714 201.619 184.649 199.176 187.373C195.76 191.184 192.234 194.915 188.523 198.437C186.121 200.717 183.323 202.585 180.671 204.595C176.206 207.98 171.554 211.066 166.481 213.493C163.605 214.869 160.844 216.51 157.904 217.724C154.661 219.065 151.29 220.108 147.942 221.179C145.027 222.111 142.086 222.982 139.118 223.725C137.171 224.213 135.153 224.41 133.172 224.764C131.854 224.999 130.545 225.278 129.232 225.54C129.121 225.562 129.015 225.614 128.904 225.624C127.08 225.791 125.259 226.027 123.431 226.102C118.663 226.296 113.89 226.556 109.122 226.519C106.111 226.496 103.103 225.995 100.095 225.691C98.7207 225.552 97.3428 225.423 95.981 225.201C93.6669 224.824 91.3573 224.411 89.0586 223.95C86.8278 223.502 84.6062 223.003 82.3941 222.47C81.3035 222.207 80.234 221.845 79.1712 221.481C75.7037 220.291 72.2402 219.088 68.784 217.866C68.2195 217.666 67.7057 217.327 67.1584 217.074C65.3168 216.222 63.3901 215.52 61.6423 214.508C57.3629 212.03 53.111 209.495 48.9555 206.816C46.4796 205.22 44.2359 203.269 41.8372 201.548C36.7204 197.876 32.5564 193.185 28.2112 188.71C25.88 186.31 23.9869 183.475 21.9703 180.78C20.3547 178.621 18.7446 176.445 17.3259 174.156C15.7251 171.573 14.3039 168.876 12.8743 166.192C11.6943 163.976 10.472 161.765 9.52564 159.447C8.03897 155.805 6.68214 152.104 5.43386 148.374C4.41477 145.328 3.55524 142.223 2.77792 139.105C2.29222 137.158 2.1051 135.137 1.75576 133.153C1.52986 131.871 1.2537 130.597 0.99779 129.32C0.968256 129.173 0.901869 129.03 0.890174 128.882C0.724938 126.793 0.503946 124.706 0.418579 122.614C0.227108 117.921 -0.0276599 113.224 0.0024392 108.53C0.0202932 105.746 0.529122 102.964 0.821102 100.182C0.980914 98.6595 1.10787 97.1316 1.32514 95.6169C1.5257 94.2186 1.81799 92.8331 2.08632 91.4451C2.42604 89.6879 2.75605 87.9282 3.14102 86.1807C3.38977 85.0515 3.69039 83.9302 4.0359 82.8266C5.03129 79.6474 5.90215 76.4166 7.1171 73.322C8.70822 69.2691 10.5073 65.2923 12.3528 61.3463C14.6176 56.5041 17.4815 52.0004 20.5777 47.6515C21.9649 45.7031 23.506 43.8651 24.9272 41.94C28.5021 37.0977 32.9299 33.0521 37.1791 28.8464C38.7151 27.3261 40.5133 26.0707 42.2494 24.6368ZM83.5216 188.422C83.6071 188.438 83.6925 188.454 83.9217 188.524C84.2379 188.773 84.554 189.022 84.988 189.378C85.8154 189.845 86.6232 190.352 87.4745 190.771C89.0192 191.531 90.5717 192.28 92.1563 192.951C93.1062 193.353 94.123 193.596 95.2733 193.965C95.8395 194.197 96.3908 194.48 96.9749 194.65C98.3615 195.055 99.7628 195.409 101.16 195.776C101.373 195.832 101.713 195.768 101.797 195.892C102.372 196.753 103.169 196.394 103.92 196.355C104.145 196.343 104.379 196.424 104.602 196.487C105.04 196.611 105.471 196.858 105.909 196.867C106.828 196.884 107.749 196.781 108.704 196.916C109.084 196.992 109.466 197.144 109.844 197.134C112.711 197.056 115.577 196.948 118.639 196.879C119.504 196.73 120.366 196.563 121.233 196.436C122.433 196.26 123.657 196.197 124.834 195.928C125.693 195.732 126.493 195.281 127.498 194.898C128.862 194.424 130.227 193.95 131.728 193.49C131.838 193.429 131.948 193.368 132.202 193.294C132.298 193.282 132.393 193.269 132.654 193.267C134.048 192.628 135.442 191.989 136.994 191.291C137.451 190.988 137.876 190.611 138.371 190.395C140.672 189.389 142.738 188.036 144.624 186.327C144.624 186.327 144.692 186.247 144.717 186.259C144.717 186.259 144.729 186.233 144.891 186.245C145.967 185.407 147.125 184.654 148.105 183.716C150.696 181.237 153.295 178.758 155.247 175.701C156.335 173.998 157.604 172.4 158.575 170.636C160.212 167.664 161.832 164.665 162.767 161.373C163.235 159.728 163.602 158.054 164.184 156.318C164.267 156.2 164.4 156.091 164.424 155.962C164.739 154.248 165.13 152.541 165.319 150.813C165.554 148.661 165.62 146.49 165.791 144.129C165.629 142.458 165.467 140.787 165.337 138.921C165.188 138.149 164.908 137.376 164.915 136.605C164.931 134.865 164.127 133.518 163.11 132.066C162.603 131.293 162.205 130.406 161.557 129.777C160.925 129.165 160.037 128.817 159.132 128.245C158.747 128.142 158.346 128.076 157.978 127.93C155.912 127.106 153.854 126.262 151.705 125.282C149.947 124.754 148.192 124.218 146.432 123.7C145.217 123.342 144.004 122.968 142.773 122.674C141.547 122.382 140.3 122.179 138.882 121.904C138.069 121.732 137.243 121.605 136.445 121.378C134.853 120.924 133.283 120.374 131.399 120.546C130.935 120.392 130.481 120.181 130.004 120.097C128.944 119.91 127.877 119.738 126.805 119.649C124.625 119.467 122.441 119.343 120.057 119.158C119.443 119.171 118.83 119.184 118.008 119.159C114.218 119.4 110.415 118.731 106.618 119.582C104.58 120.038 102.424 119.96 100.12 120.091C99.599 120.104 99.0682 120.059 98.5579 120.141C96.8755 120.412 95.2006 120.729 93.3541 120.996C93.1838 121.009 93.0135 121.022 92.6577 121.038C91.4521 121.249 90.2398 121.429 89.0446 121.687C88.6162 121.78 88.229 122.063 87.6338 122.296C86.4902 122.579 85.3467 122.862 84.0227 123.189C83.3859 123.355 82.735 123.482 82.1152 123.698C80.9884 124.09 79.88 124.536 78.5831 125.001C77.5108 125.373 76.4386 125.745 75.2055 126.189C73.2725 126.916 71.3079 127.57 69.4156 128.39C67.6355 129.162 65.8492 129.982 64.2241 131.027C63.1888 131.693 62.2875 132.705 61.6003 133.743C60.3508 135.631 60.3866 137.945 60.2774 140.061C60.0523 144.421 60.0216 148.811 60.7125 153.334C60.8446 153.844 60.9645 154.358 61.1113 154.864C61.3892 155.822 61.6825 156.774 61.9958 157.921C62.0258 158.365 61.969 158.838 62.1021 159.25C62.5006 160.481 62.9734 161.688 63.3884 163.071C63.9076 164.245 64.4269 165.42 65.0071 166.74C65.5896 167.902 66.172 169.063 66.8162 170.362C67.2484 171.071 67.6806 171.78 68.1745 172.628C68.6754 173.307 69.2481 173.945 69.664 174.673C70.9718 176.962 72.7683 178.848 74.6453 180.918C75.9459 182.214 77.1653 183.608 78.5688 184.781C80.104 186.064 81.8094 187.144 83.5216 188.422ZM100.862 110.994C101.362 111.144 101.863 111.295 102.535 111.483C103.923 112.108 105.374 112.484 107.01 112.736C108.249 112.78 109.489 112.824 110.814 113.015C111.237 113.181 111.668 113.503 112.08 113.481C113.019 113.43 113.944 113.173 114.882 113.068C116.596 112.875 118.316 112.731 120.212 112.598C121.024 112.382 121.859 112.228 122.644 111.938C124.181 111.37 125.696 110.74 127.21 110.113C130.488 108.755 133.44 106.827 136.144 104.576C138.087 102.958 139.626 100.941 141.107 98.85C143.082 96.0603 144.418 92.9982 145.709 89.8925C146.025 89.1341 146.099 88.2753 146.337 87.2907C146.638 86.0011 147.136 84.7207 147.198 83.4198C147.322 80.7699 147.21 78.109 147.233 75.2528C147.077 74.3709 146.943 73.4842 146.76 72.608C146.448 71.116 146.142 69.621 145.756 68.1474C145.608 67.5814 145.25 67.0704 144.984 66.3571C144.677 65.5526 144.449 64.7055 144.045 63.953C143.358 62.6736 142.56 61.4537 141.812 60.044C141.207 59.2621 140.603 58.4801 140.016 57.5429C139.363 56.7166 138.71 55.8904 137.989 54.9398C137.089 54.2145 136.189 53.4893 135.219 52.622C133.717 51.597 132.215 50.572 130.634 49.4101C128.695 48.5363 126.755 47.6626 124.682 46.6857C124.456 46.6706 124.206 46.7141 124.009 46.6316C121.722 45.6735 119.339 45.2487 116.804 45.1231C116.463 45.0285 116.125 44.86 115.782 44.8524C114.399 44.8216 113.007 44.7532 111.631 44.8631C109.965 44.9962 108.313 45.2954 106.481 45.5764C103.427 46.0884 100.517 47.0726 97.7953 48.5208C95.6704 49.6515 93.5362 50.8325 91.6293 52.2843C89.9643 53.5518 88.607 55.2246 87.1236 56.7282C86.8903 56.9647 86.6932 57.242 86.5072 57.5191C85.7252 58.6841 84.8727 59.8116 84.1977 61.0364C83.2284 62.7951 82.2802 64.582 81.5314 66.4407C80.8872 68.0397 80.4834 69.7436 80.0691 71.4247C79.7193 72.8446 79.2816 74.2981 79.2802 75.7371C79.277 78.7903 78.8552 81.8758 79.684 84.8975C80.1658 86.6544 80.6228 88.4181 81.0611 90.3534C81.6125 91.6709 82.1201 93.009 82.7305 94.2985C83.145 95.1739 83.7038 95.9809 84.1914 96.9791C84.9701 98.1862 85.7487 99.3934 86.5292 100.754C87.7015 101.923 88.8738 103.093 90.1193 104.399C91.1788 105.238 92.2384 106.076 93.4486 106.965C94.7427 107.748 96.0367 108.531 97.4215 109.444C98.5283 109.923 99.635 110.402 100.862 110.994Z" fill="#E9E9E9"/>
<defs>
<radialGradient id="paint0_radial_4_97" cx="0" cy="0" r="1" gradientTransform="matrix(-40 151.499 -100.999 -26.6656 77.9999 23.5005)" gradientUnits="userSpaceOnUse">
<stop stop-color="#FF4200"/>
<stop offset="0.318162" stop-color="#FF4905"/>
<stop offset="1" stop-color="#FFFF00"/>
</radialGradient>
</defs>
</svg>
