<svg width="227" height="227" viewBox="0 0 227 227" fill="none" xmlns="http://www.w3.org/2000/svg">
<path d="M42.2494 24.6368C44.2428 23.1083 46.1085 21.5316 48.1306 20.1908C51.2834 18.1001 54.4761 16.051 57.7753 14.2047C60.9634 12.4206 64.2295 10.7263 67.6027 9.33516C71.8588 7.5799 76.2239 6.06559 80.6084 4.65364C83.2628 3.79883 86.0319 3.28115 88.77 2.71075C91.2837 2.1871 93.833 1.83666 96.3519 1.3355C99.2604 0.7568 102.234 0.759658 105.139 0.361294C109.289 -0.207768 113.41 0.0670207 117.536 0.0617746C120.317 0.0582394 123.098 0.585925 125.879 0.87221C126.141 0.899197 126.409 0.878564 126.669 0.915025C128.621 1.18841 130.572 1.46297 132.522 1.75326C133.479 1.89583 134.428 2.09826 135.386 2.22984C141.835 3.11502 147.922 5.33227 154.049 7.37157C156.354 8.13871 158.562 9.21887 160.768 10.2542C163.381 11.4804 166.007 12.7015 168.512 14.1268C171.538 15.8481 174.498 17.7002 177.386 19.6458C180.205 21.5453 182.923 23.5987 185.632 25.6549C186.943 26.6501 188.185 27.7517 189.365 28.901C192.043 31.5089 194.749 34.0959 197.278 36.8442C199.351 39.0972 201.266 41.5096 203.104 43.9621C205.46 47.1069 207.691 50.3466 209.927 53.5797C210.65 54.6255 211.282 55.7472 211.844 56.8894C213.912 61.0972 216.007 65.2947 217.944 69.5632C219.04 71.9802 219.938 74.4991 220.762 77.0251C221.584 79.5425 222.24 82.1165 222.899 84.6837C223.52 87.1007 224.088 89.533 224.602 91.9747C224.871 93.2496 224.962 94.5612 225.157 95.8526C225.418 97.5817 225.701 99.3074 225.975 101.035C225.999 101.183 226.042 101.331 226.046 101.48C226.203 107.459 226.452 113.437 226.462 119.415C226.466 121.743 225.915 124.07 225.647 126.401C225.456 128.071 225.338 129.749 225.144 131.419C225.028 132.417 224.892 133.422 224.654 134.397C223.666 138.451 222.645 142.498 221.62 146.543C220.288 151.798 218.302 156.805 215.88 161.647C214.421 164.566 213.098 167.563 211.472 170.385C209.81 173.269 207.953 176.055 205.996 178.75C203.844 181.714 201.619 184.649 199.176 187.373C195.76 191.184 192.234 194.915 188.523 198.437C186.121 200.717 183.323 202.585 180.671 204.595C176.206 207.98 171.554 211.066 166.481 213.493C163.605 214.869 160.844 216.51 157.904 217.724C154.661 219.065 151.29 220.108 147.942 221.179C145.027 222.111 142.086 222.982 139.118 223.725C137.171 224.213 135.153 224.41 133.172 224.764C131.854 224.999 130.545 225.278 129.232 225.54C129.121 225.562 129.015 225.614 128.904 225.624C127.08 225.791 125.259 226.027 123.431 226.102C118.663 226.296 113.89 226.556 109.122 226.519C106.111 226.496 103.103 225.995 100.095 225.691C98.7207 225.552 97.3428 225.423 95.981 225.201C93.6669 224.824 91.3573 224.411 89.0586 223.95C86.8278 223.502 84.6062 223.003 82.3941 222.47C81.3035 222.207 80.234 221.845 79.1712 221.481C75.7037 220.291 72.2402 219.088 68.784 217.866C68.2195 217.666 67.7057 217.327 67.1584 217.074C65.3168 216.222 63.3901 215.52 61.6423 214.508C57.3629 212.03 53.111 209.495 48.9555 206.816C46.4796 205.22 44.2359 203.269 41.8372 201.548C36.7204 197.876 32.5564 193.185 28.2112 188.71C25.88 186.31 23.9869 183.475 21.9703 180.78C20.3547 178.621 18.7446 176.445 17.3259 174.156C15.7251 171.573 14.3039 168.876 12.8743 166.192C11.6943 163.976 10.472 161.765 9.52564 159.447C8.03897 155.805 6.68214 152.104 5.43386 148.374C4.41477 145.328 3.55524 142.223 2.77792 139.105C2.29222 137.158 2.1051 135.137 1.75576 133.153C1.52986 131.871 1.2537 130.597 0.99779 129.32C0.968256 129.173 0.901869 129.03 0.890174 128.882C0.724938 126.793 0.503946 124.706 0.418579 122.614C0.227108 117.921 -0.0276599 113.224 0.0024392 108.53C0.0202932 105.746 0.529122 102.964 0.821102 100.182C0.980914 98.6595 1.10787 97.1316 1.32514 95.6169C1.5257 94.2186 1.81799 92.8331 2.08632 91.4451C2.42604 89.6879 2.75605 87.9282 3.14102 86.1807C3.38977 85.0515 3.69039 83.9302 4.0359 82.8266C5.03129 79.6474 5.90215 76.4166 7.1171 73.322C8.70822 69.2691 10.5073 65.2923 12.3528 61.3463C14.6176 56.5041 17.4815 52.0004 20.5777 47.6515C21.9649 45.7031 23.506 43.8651 24.9272 41.94C28.5021 37.0977 32.9299 33.0521 37.1791 28.8464C38.7151 27.3261 40.5133 26.0707 42.2494 24.6368ZM83.5216 188.422C83.6071 188.438 83.6925 188.454 83.9217 188.524C84.2379 188.773 84.554 189.022 84.988 189.378C85.8154 189.845 86.6232 190.352 87.4745 190.771C89.0192 191.531 90.5717 192.28 92.1563 192.951C93.1062 193.353 94.123 193.596 95.2733 193.965C95.8395 194.197 96.3908 194.48 96.9749 194.65C98.3615 195.055 99.7628 195.409 101.16 195.776C101.373 195.832 101.713 195.768 101.797 195.892C102.372 196.753 103.169 196.394 103.92 196.355C104.145 196.343 104.379 196.424 104.602 196.487C105.04 196.611 105.471 196.858 105.909 196.867C106.828 196.884 107.749 196.781 108.704 196.916C109.084 196.992 109.466 197.144 109.844 197.134C112.711 197.056 115.577 196.948 118.639 196.879C119.504 196.73 120.366 196.563 121.233 196.436C122.433 196.26 123.657 196.197 124.834 195.928C125.693 195.732 126.493 195.281 127.498 194.898C128.862 194.424 130.227 193.95 131.728 193.49C131.838 193.429 131.948 193.368 132.202 193.294C132.298 193.282 132.393 193.269 132.654 193.267C134.048 192.628 135.442 191.989 136.994 191.291C137.451 190.988 137.876 190.611 138.371 190.395C140.672 189.389 142.738 188.036 144.624 186.327C144.624 186.327 144.692 186.247 144.717 186.259C144.717 186.259 144.729 186.233 144.891 186.245C145.967 185.407 147.125 184.654 148.105 183.716C150.696 181.237 153.295 178.758 155.247 175.701C156.335 173.998 157.604 172.4 158.575 170.636C160.212 167.664 161.832 164.665 162.767 161.373C163.235 159.728 163.602 158.054 164.184 156.318C164.267 156.2 164.4 156.091 164.424 155.962C164.739 154.248 165.13 152.541 165.319 150.813C165.554 148.661 165.62 146.49 165.791 144.129C165.629 142.458 165.467 140.787 165.337 138.921C165.188 138.149 164.908 137.376 164.915 136.605C164.931 134.865 164.127 133.518 163.11 132.066C162.603 131.293 162.205 130.406 161.557 129.777C160.925 129.165 160.037 128.817 159.132 128.245C158.747 128.142 158.346 128.076 157.978 127.93C155.912 127.106 153.854 126.262 151.705 125.282C149.947 124.754 148.192 124.218 146.432 123.7C145.217 123.342 144.004 122.968 142.773 122.674C141.547 122.382 140.3 122.179 138.882 121.904C138.069 121.732 137.243 121.605 136.445 121.378C134.853 120.924 133.283 120.374 131.399 120.546C130.935 120.392 130.481 120.181 130.004 120.097C128.944 119.91 127.877 119.738 126.805 119.649C124.625 119.467 122.441 119.343 120.057 119.158C119.443 119.171 118.83 119.184 118.008 119.159C114.218 119.4 110.415 118.731 106.618 119.582C104.58 120.038 102.424 119.96 100.12 120.091C99.599 120.104 99.0682 120.059 98.5579 120.141C96.8755 120.412 95.2006 120.729 93.3541 120.996C93.1838 121.009 93.0135 121.022 92.6577 121.038C91.4521 121.249 90.2398 121.429 89.0446 121.687C88.6162 121.78 88.229 122.063 87.6338 122.296C86.4902 122.579 85.3467 122.862 84.0227 123.189C83.3859 123.355 82.735 123.482 82.1152 123.698C80.9884 124.09 79.88 124.536 78.5831 125.001C77.5108 125.373 76.4386 125.745 75.2055 126.189C73.2725 126.916 71.3079 127.57 69.4156 128.39C67.6355 129.162 65.8492 129.982 64.2241 131.027C63.1888 131.693 62.2875 132.705 61.6003 133.743C60.3508 135.631 60.3866 137.945 60.2774 140.061C60.0523 144.421 60.0216 148.811 60.7125 153.334C60.8446 153.844 60.9645 154.358 61.1113 154.864C61.3892 155.822 61.6825 156.774 61.9958 157.921C62.0258 158.365 61.969 158.838 62.1021 159.25C62.5006 160.481 62.9734 161.688 63.3884 163.071C63.9076 164.245 64.4269 165.42 65.0071 166.74C65.5896 167.902 66.172 169.063 66.8162 170.362C67.2484 171.071 67.6806 171.78 68.1745 172.628C68.6754 173.307 69.2481 173.945 69.664 174.673C70.9718 176.962 72.7683 178.848 74.6453 180.918C75.9459 182.214 77.1653 183.608 78.5688 184.781C80.104 186.064 81.8094 187.144 83.5216 188.422ZM100.862 110.994C101.362 111.144 101.863 111.295 102.535 111.483C103.923 112.108 105.374 112.484 107.01 112.736C108.249 112.78 109.489 112.824 110.814 113.015C111.237 113.181 111.668 113.503 112.08 113.481C113.019 113.43 113.944 113.173 114.882 113.068C116.596 112.875 118.316 112.731 120.212 112.598C121.024 112.382 121.859 112.228 122.644 111.938C124.181 111.37 125.696 110.74 127.21 110.113C130.488 108.755 133.44 106.827 136.144 104.576C138.087 102.958 139.626 100.941 141.107 98.85C143.082 96.0603 144.418 92.9982 145.709 89.8925C146.025 89.1341 146.099 88.2753 146.337 87.2907C146.638 86.0011 147.136 84.7207 147.198 83.4198C147.322 80.7699 147.21 78.109 147.233 75.2528C147.077 74.3709 146.943 73.4842 146.76 72.608C146.448 71.116 146.142 69.621 145.756 68.1474C145.608 67.5814 145.25 67.0704 144.984 66.3571C144.677 65.5526 144.449 64.7055 144.045 63.953C143.358 62.6736 142.56 61.4537 141.812 60.044C141.207 59.2621 140.603 58.4801 140.016 57.5429C139.363 56.7166 138.71 55.8904 137.989 54.9398C137.089 54.2145 136.189 53.4893 135.219 52.622C133.717 51.597 132.215 50.572 130.634 49.4101C128.695 48.5363 126.755 47.6626 124.682 46.6857C124.456 46.6706 124.206 46.7141 124.009 46.6316C121.722 45.6735 119.339 45.2487 116.804 45.1231C116.463 45.0285 116.125 44.86 115.782 44.8524C114.399 44.8216 113.007 44.7532 111.631 44.8631C109.965 44.9962 108.313 45.2954 106.481 45.5764C103.427 46.0884 100.517 47.0726 97.7953 48.5208C95.6704 49.6515 93.5362 50.8325 91.6293 52.2843C89.9643 53.5518 88.607 55.2246 87.1236 56.7282C86.8903 56.9647 86.6932 57.242 86.5072 57.5191C85.7252 58.6841 84.8727 59.8116 84.1977 61.0364C83.2284 62.7951 82.2802 64.582 81.5314 66.4407C80.8872 68.0397 80.4834 69.7436 80.0691 71.4247C79.7193 72.8446 79.2816 74.2981 79.2802 75.7371C79.277 78.7903 78.8552 81.8758 79.684 84.8975C80.1658 86.6544 80.6228 88.4181 81.0611 90.3534C81.6125 91.6709 82.1201 93.009 82.7305 94.2985C83.145 95.1739 83.7038 95.9809 84.1914 96.9791C84.9701 98.1862 85.7487 99.3934 86.5292 100.754C87.7015 101.923 88.8738 103.093 90.1193 104.399C91.1788 105.238 92.2384 106.076 93.4486 106.965C94.7427 107.748 96.0367 108.531 97.4215 109.444C98.5283 109.923 99.635 110.402 100.862 110.994Z" fill="#261316"/>
<path d="M106.483 119.779C110.28 118.928 114.084 119.596 117.873 119.356C118.696 119.38 119.31 119.368 119.923 119.355C122.307 119.54 124.491 119.663 126.671 119.845C127.742 119.935 128.81 120.107 129.87 120.293C130.347 120.377 130.801 120.589 131.266 120.743C133.149 120.571 134.719 121.121 136.311 121.575C137.109 121.802 137.935 121.929 138.748 122.101C140.166 122.377 141.414 122.578 142.64 122.871C143.87 123.165 145.083 123.539 146.298 123.897C148.058 124.415 149.813 124.951 151.57 125.479C153.72 126.459 155.779 127.302 157.845 128.126C158.212 128.273 158.613 128.339 158.998 128.442C159.903 129.014 160.791 129.362 161.423 129.974C162.071 130.603 162.468 131.489 162.975 132.263C163.993 133.714 164.797 135.062 164.781 136.802C164.774 137.573 165.054 138.346 165.203 139.118C165.333 140.984 165.494 142.655 165.656 144.326C165.485 146.687 165.42 148.857 165.184 151.009C164.996 152.738 164.605 154.445 164.29 156.159C164.266 156.288 164.132 156.396 164.05 156.514C163.467 158.25 163.1 159.925 162.633 161.57C161.697 164.861 160.077 167.861 158.441 170.832C157.47 172.597 156.201 174.195 155.113 175.898C153.161 178.954 150.562 181.434 147.972 183.913C146.991 184.851 145.833 185.604 144.757 186.441C144.595 186.43 144.583 186.456 144.583 186.456C144.557 186.443 144.49 186.524 144.49 186.524C142.604 188.233 140.538 189.585 138.236 190.591C137.741 190.808 137.316 191.185 136.859 191.488C135.308 192.185 133.914 192.824 132.52 193.463C132.259 193.466 132.164 193.478 132.068 193.491C131.814 193.565 131.704 193.626 131.594 193.687C130.093 194.147 128.728 194.621 127.363 195.095C126.359 195.478 125.559 195.929 124.7 196.125C123.523 196.394 122.299 196.457 121.099 196.632C120.232 196.759 119.369 196.926 118.505 197.076C117.008 197.109 115.558 197.152 114.132 197.197H108.908C108.795 197.167 108.683 197.135 108.57 197.113C107.615 196.978 106.694 197.081 105.775 197.063C105.338 197.055 104.906 196.809 104.468 196.684C104.245 196.621 104.011 196.54 103.786 196.551C103.035 196.59 102.238 196.95 101.662 196.089C101.579 195.965 101.239 196.028 101.026 195.972C99.6288 195.605 98.2273 195.252 96.8407 194.847C96.2567 194.677 95.7056 194.393 95.1395 194.162C93.9893 193.793 92.9721 193.55 92.0223 193.148C90.4378 192.477 88.8853 191.727 87.3407 190.967C86.4894 190.548 85.6808 190.042 84.8534 189.575C84.4196 189.219 84.104 188.969 83.788 188.72C83.5589 188.651 83.473 188.635 83.3876 188.619C81.6754 187.341 79.9696 186.261 78.4344 184.978C77.0311 183.805 75.812 182.411 74.5116 181.115C72.6346 179.046 70.838 177.159 69.5302 174.87C69.1143 174.142 68.5408 173.504 68.0399 172.825C67.546 171.977 67.1137 171.267 66.6815 170.558C66.0375 169.26 65.4553 168.098 64.8729 166.937C64.2927 165.617 63.773 164.442 63.2538 163.268C62.8388 161.886 62.3661 160.678 61.9677 159.447C61.8346 159.035 61.8912 158.562 61.8612 158.118C61.5479 156.972 61.2552 156.018 60.9774 155.061C60.8306 154.555 60.7101 154.041 60.578 153.531C59.8871 149.008 59.9184 144.617 60.1434 140.257C60.2526 138.142 60.2164 135.828 61.4657 133.94C62.153 132.902 63.0545 131.889 64.0897 131.223C65.7148 130.178 67.5011 129.358 69.2811 128.586C71.1733 127.766 73.1382 127.113 75.0712 126.386C76.3042 125.942 77.3768 125.569 78.4491 125.198C79.7459 124.732 80.8546 124.286 81.9813 123.894C82.601 123.678 83.2518 123.552 83.8885 123.385C85.2125 123.058 86.3563 122.776 87.4999 122.493C88.0947 122.26 88.4819 121.977 88.91 121.884C90.1052 121.626 91.3178 121.446 92.5233 121.235C92.8789 121.218 93.0494 121.205 93.2196 121.193C95.0661 120.926 96.7414 120.609 98.4237 120.338C98.934 120.256 99.4648 120.301 99.9862 120.288C102.289 120.157 104.446 120.235 106.483 119.779ZM111.497 45.06C112.873 44.9501 114.265 45.0184 115.648 45.0493C115.991 45.0569 116.329 45.2252 116.67 45.3198C119.205 45.4453 121.588 45.8705 123.875 46.8286C124.072 46.9111 124.322 46.8672 124.548 46.8823C126.621 47.8591 128.56 48.7332 130.5 49.6069C132.081 50.7688 133.583 51.7938 135.085 52.8188C136.055 53.6861 136.955 54.411 137.855 55.1362C138.576 56.0868 139.229 56.9135 139.882 57.7397C140.468 58.6769 141.073 59.4587 141.678 60.2407C142.425 61.6503 143.224 62.8704 143.911 64.1498C144.315 64.9022 144.542 65.7497 144.849 66.5541C145.116 67.2673 145.474 67.7783 145.622 68.3442C146.007 69.8178 146.314 71.3132 146.626 72.8051C146.809 73.6812 146.943 74.5678 147.099 75.4496C147.076 78.3058 147.188 80.9668 147.063 83.6166C147.002 84.9175 146.504 86.1981 146.203 87.4877C145.965 88.4722 145.89 89.3309 145.575 90.0893C144.284 93.1948 142.948 96.2567 140.973 99.0463C139.492 101.137 137.953 103.155 136.01 104.773C133.306 107.024 130.354 108.951 127.076 110.309C125.562 110.936 124.047 111.567 122.51 112.134C121.725 112.424 120.89 112.579 120.078 112.795C118.182 112.928 116.462 113.071 114.748 113.264C113.81 113.37 112.885 113.627 111.946 113.677C111.534 113.699 111.103 113.378 110.681 113.212C109.355 113.021 108.115 112.977 106.876 112.933C105.24 112.681 103.788 112.305 102.4 111.68C101.729 111.492 101.228 111.341 100.727 111.191C99.5008 110.599 98.3937 110.119 97.287 109.64C95.9023 108.727 94.6083 107.944 93.3143 107.162C92.1042 106.272 91.0447 105.434 89.9852 104.596C88.7397 103.289 87.5676 102.12 86.3954 100.951C85.6149 99.59 84.836 98.3832 84.0575 97.1762C83.5699 96.1782 83.011 95.3708 82.5966 94.4955C81.9861 93.2061 81.478 91.8677 80.9266 90.5502C80.4883 88.6149 80.0315 86.851 79.5497 85.0942C78.7209 82.0725 79.1432 78.9871 79.1464 75.934C79.1478 74.495 79.5855 73.0414 79.9354 71.6215C80.3497 69.9404 80.7531 68.2361 81.3973 66.6371C82.1462 64.7785 83.0941 62.9915 84.0634 61.2328C84.7383 60.0082 85.591 58.8811 86.3729 57.7162C86.5589 57.4393 86.756 57.1616 86.9891 56.9252C88.4725 55.4217 89.8301 53.7484 91.495 52.4809C93.4019 51.0291 95.5362 49.8479 97.661 48.7172C100.382 47.2691 103.293 46.2849 106.348 45.7729C108.179 45.4919 109.832 45.193 111.497 45.06Z" fill="url(#paint0_radial_4_95)"/>
<defs>
<radialGradient id="paint0_radial_4_95" cx="0" cy="0" r="1" gradientTransform="matrix(49.9997 198 -131.999 33.3333 47.8659 18.6963)" gradientUnits="userSpaceOnUse">
<stop stop-color="#FF4200"/>
<stop offset="0.318162" stop-color="#FF4905"/>
<stop offset="1" stop-color="#FEC656"/>
</radialGradient>
</defs>
</svg>
