<svg width="294" height="133" viewBox="0 0 294 133" fill="none" xmlns="http://www.w3.org/2000/svg">
<path d="M270.965 121.231C267.172 121.666 265.588 119.524 264.977 116.164C263.409 107.54 261.815 98.9208 260.217 90.3023C259.832 88.2307 259.389 86.1701 259.032 83.2812C258.975 80.7757 258.86 79.0933 258.766 76.9946C259.101 73.7753 258.046 71.9185 255.045 72.0316C248.994 72.2597 242.951 72.6886 236.525 73.0556C232.008 73.0085 231.46 76.6475 229.598 79.4193C227.227 83.5341 225.102 87.4118 222.722 91.5096C218.795 97.5932 214.898 103.331 211.526 109.362C209.057 113.777 205.902 116.939 200.945 118.153C199.948 118.208 198.95 118.324 197.955 118.307C193.291 118.231 192.597 117.087 194.966 112.89C199.54 104.785 204.311 96.7902 208.843 88.6624C210.252 86.1367 211.154 83.3286 211.899 81.5679C209.063 80.1188 206.792 78.9582 204.521 77.7975C206.451 75.7554 208.063 72.4832 210.367 71.887C219.658 69.4834 224.281 63.0112 228.369 55.0009C236.962 38.1624 246.252 21.6793 255.258 5.05136C257.044 1.75458 264.146 -1.19765 267.554 0.490328C268.885 1.1499 269.36 3.53795 270.256 5.95085C270.478 8.94133 270.671 11.1197 270.851 13.7633C271.17 21.2007 271.567 28.1705 271.82 35.1455C272.735 60.4273 274.609 85.5861 280.64 110.274C281.945 115.615 280.132 118.282 274.754 120.017C273.492 120.424 272.228 120.827 270.965 121.231ZM250.732 61.4606C252.791 61.3549 254.849 61.2491 256.827 61.1475C256.827 56.1344 256.827 51.74 256.872 46.4089C256.637 41.3415 256.402 36.274 256.167 31.2066C255.691 31.099 255.215 30.9913 254.738 30.8836C249.853 41.0783 244.967 51.273 239.542 62.5951C243.725 62.0926 246.767 61.7271 250.732 61.4606Z" fill="#FCBB58"/>
<path d="M136.001 61.0983C136.001 48.119 136.001 35.6249 136.001 22.3316C143.05 22.3316 149.969 22.176 156.869 22.4717C158.146 22.5264 159.523 24.2514 160.552 25.4615C167.669 33.8267 174.706 42.2597 182.63 51.6969C182.63 41.2923 182.63 32.0233 182.63 22.536C189.08 22.536 194.851 22.536 200.879 22.536C200.879 37.0295 200.879 51.4715 200.879 66.2572C194.275 66.2572 187.788 66.4243 181.322 66.1316C179.833 66.0642 178.093 64.6982 177.021 63.4539C171.042 56.5122 165.243 49.4162 159.358 42.3928C158.13 40.9267 156.802 39.5444 154.725 37.2433C154.725 47.4446 154.725 56.4931 154.725 65.897C148.344 65.897 142.467 65.897 136.251 65.897C136.168 64.4727 136.085 63.0281 136.001 61.0983Z" fill="#FCDB58"/>
<path d="M60.7094 33.7545C61.1863 40.0088 62.119 45.9647 61.6287 51.801C61.2014 56.8864 57.4297 60.6318 52.6245 62.224C47.3193 63.9819 41.7549 65.6686 36.2357 65.9238C24.2998 66.4758 12.3207 66.0938 0 66.0938C0 51.6801 0 37.321 0 22.2787C16.1268 22.9365 32.3785 20.5381 48.3671 24.6076C53.4702 25.9065 57.891 28.53 60.7094 33.7545ZM20.6374 33.2305C19.7467 34.0445 18.1118 34.8335 18.0835 35.6765C17.8673 42.0941 17.9651 48.5222 17.9651 55.0106C23.4347 55.0106 28.4294 55.4706 33.3043 54.9023C40.5403 54.0588 43.5577 50.5984 43.5906 44.4106C43.6238 38.1425 40.7088 34.7726 33.5221 33.6921C29.6122 33.1043 25.5761 33.3555 20.6374 33.2305Z" fill="#FDDC58"/>
<path d="M127.785 51.8243C124.458 60.8158 117.622 65.1053 109.094 66.0832C101.905 66.9075 94.4555 67.004 87.2867 66.1051C74.7755 64.5364 67.7622 56.5377 67.3953 44.9705C67.0276 33.3748 73.4793 24.8537 86.05 22.8502C93.9471 21.5915 102.41 21.5072 110.268 22.8894C125.15 25.5071 131.278 36.3105 127.785 51.8243ZM100.861 33.3867C91.8055 33.0377 86.9291 35.9734 85.974 42.349C85.0405 48.5804 88.4899 53.763 94.4421 55.0721C101.772 56.6842 108.308 53.5556 109.907 47.67C111.703 41.0574 108.834 36.1295 100.861 33.3867Z" fill="#FBDA58"/>
<path d="M199.398 77.6762C193.649 83.2571 186.473 87.7238 183.151 94.1751C180.029 100.238 180.977 108.397 180.095 115.975C174.897 115.975 169.141 115.975 162.657 115.975C162.657 110.484 162.913 104.894 162.53 99.3493C162.378 97.134 161.331 94.5202 159.808 92.9394C153.348 86.2364 146.556 79.854 139.896 73.3444C139.815 73.2657 139.865 73.0534 139.81 72.3072C145.73 72.3072 151.631 72.1791 157.519 72.41C158.769 72.459 160.117 73.652 161.164 74.6009C164.738 77.8405 168.197 81.2063 172.168 84.9678C175.134 81.9396 178.25 78.3152 181.853 75.2667C183.662 73.7363 186.303 72.6327 188.663 72.4268C193.571 71.9988 198.542 72.2975 203.487 72.2975C203.828 72.7398 204.169 73.1821 204.511 73.6245C202.892 74.8925 201.272 76.1605 199.398 77.6762Z" fill="#FCDB58"/>
<path d="M276.899 12.2814C281.243 11.8328 282.722 14.0009 282.946 18.135C284.186 41.0371 285.131 63.9708 287.138 86.8094C288.21 99.0111 291.093 111.066 293.423 123.136C294.05 126.382 293.622 129.233 290.729 130.341C287.366 131.629 283.581 131.992 279.946 132.219C279.328 132.257 278.542 129.592 278.158 127.61C286.998 123.878 288.333 122.389 286.969 116.747C278.66 82.3983 278.024 47.3178 276.899 12.2814Z" fill="#6B4921"/>
<path d="M276.841 12.284C278.024 47.3178 278.66 82.3983 286.969 116.747C288.333 122.389 286.998 123.878 278.162 127.227C274.495 126.944 271.635 125.897 271.112 121.56C272.228 120.827 273.492 120.424 274.754 120.017C280.132 118.282 281.945 115.615 280.64 110.274C274.609 85.5861 272.735 60.4273 271.82 35.1455C271.567 28.1705 271.17 21.2007 271.226 13.7384C273.31 12.9555 275.006 12.6627 276.703 12.3699C276.703 12.3699 276.783 12.2866 276.841 12.284Z" fill="#B3913C"/>
<path d="M258.745 77.4109C258.86 79.0933 258.975 80.7757 258.989 82.8687C247.698 82.65 242.247 89.5513 237.632 98.5079C233.147 107.21 227.535 115.326 222.534 123.768C219.878 128.253 215.869 129.991 210.916 130.263C206.772 130.49 205.307 128.853 207.158 124.311C207.902 123.574 208.425 123.401 209.299 123.188C211.866 121.281 214.68 119.804 216.189 117.479C221.979 108.558 228.362 99.8087 232.61 90.1537C237.395 79.2811 245.616 77.177 255.757 77.2795C256.753 77.2896 257.749 77.3655 258.745 77.4109Z" fill="#6B4921"/>
<path d="M208.948 123.228C208.425 123.401 207.902 123.574 207.172 123.929C199.756 124.484 199.393 124.173 200.936 118.546C205.902 116.939 209.057 113.777 211.526 109.362C214.898 103.331 218.795 97.5932 223.041 91.5179C227.912 91.4689 225.517 93.5797 224.669 95.1053C219.451 104.492 214.193 113.856 208.948 123.228Z" fill="#977633"/>
<path d="M276.681 11.9821C275.006 12.6627 273.31 12.9555 271.238 13.2732C270.671 11.1197 270.478 8.94135 270.314 6.35042C274.133 5.94136 276.881 7.10929 276.681 11.9821Z" fill="#977633"/>
<path d="M209.299 123.188C214.193 113.856 219.451 104.492 224.669 95.1053C225.517 93.5797 227.912 91.4689 223.295 91.2977C225.102 87.4118 227.227 83.5341 229.85 79.6318C235.309 80.1853 235.432 75.9372 236.904 73.0346C242.951 72.6886 248.994 72.2597 255.045 72.0316C258.046 71.9185 259.101 73.7753 258.766 76.9946C257.749 77.3655 256.753 77.2896 255.757 77.2795C245.616 77.177 237.395 79.2811 232.61 90.1537C228.362 99.8087 221.979 108.558 216.189 117.479C214.68 119.804 211.866 121.281 209.299 123.188Z" fill="#B4923D"/>
<path d="M249.808 61.3617C246.767 61.7271 243.725 62.0926 239.542 62.5951C244.967 51.273 249.853 41.0783 254.738 30.8836C255.215 30.9913 255.691 31.099 256.167 31.2066C256.402 36.274 256.637 41.3415 256.588 47.0856C254.139 52.2954 251.974 56.8286 249.808 61.3617Z" fill="#A58237"/>
<path d="M250.271 61.4111C251.974 56.8285 254.139 52.2954 256.566 47.5539C256.827 51.74 256.827 56.1344 256.827 61.1475C254.849 61.2491 252.791 61.3549 250.271 61.4111Z" fill="#6B4921"/>
<path d="M236.525 73.0556C235.432 75.9372 235.309 80.1853 230.095 79.3946C231.461 76.6475 232.008 73.0085 236.525 73.0556Z" fill="#977633"/>
</svg>
